<svg width="32" height="32" viewBox="0 0 32 32" fill="none" xmlns="http://www.w3.org/2000/svg">
<path d="M17.5809 27.5441C21.0141 29.272 25.0982 30.4846 29.9363 30.9181C30.5116 30.9697 31 30.511 31 29.9334V24.2808C31 23.8219 30.6877 23.4219 30.2425 23.3106L24.0493 21.7623C23.7085 21.6771 23.348 21.777 23.0996 22.0254L17.5809 27.5441ZM17.5809 27.5441C11.739 24.6039 7.78197 20.1719 5.20219 15.5478M5.20219 15.5478C2.53613 10.7691 1.34102 5.78544 1.05672 2.03145C1.01402 1.46772 1.46855 1 2.03389 1H7.6802C8.15688 1 8.56729 1.33646 8.66078 1.80388L10.27 9.85021C10.3356 10.1781 10.233 10.517 9.99657 10.7534L5.20219 15.5478Z" stroke="black" stroke-width="1.5"/>
</svg>
