<svg width="40" height="40" viewBox="0 0 40 40" fill="none" xmlns="http://www.w3.org/2000/svg">
<rect width="40" height="40" rx="12" fill="#F0F6FF"/>
<g clip-path="url(#clip0_2_105713)">
<path d="M16 19.0172C16 16.4168 16.885 13.8937 18.5095 11.8631V11.8631C19.2737 10.9079 20.7263 10.9079 21.4905 11.8631V11.8631C23.115 13.8937 24 16.4168 24 19.0172V21.7791C24 22.9189 24 23.4889 23.7745 23.9226C23.5848 24.2874 23.2874 24.5848 22.9226 24.7745C22.4889 25 21.9189 25 20.7791 25H19.2209C18.0811 25 17.5111 25 17.0774 24.7745C16.7126 24.5848 16.4152 24.2874 16.2255 23.9226C16 23.4889 16 22.9189 16 21.7791V19.0172Z" stroke="black" stroke-width="2"/>
<path d="M21 16C21 16.5523 20.5523 17 20 17C19.4477 17 19 16.5523 19 16C19 15.4477 19.4477 15 20 15C20.5523 15 21 15.4477 21 16Z" fill="black"/>
<path d="M24 17.5L24.8541 18.7812C26.6791 21.5187 27.5916 22.8874 27.0263 23.9437C26.461 25 24.816 25 21.5259 25H18.4741C15.184 25 13.539 25 12.9737 23.9437C12.4084 22.8874 13.3209 21.5187 15.1459 18.7812L16 17.5" stroke="black" stroke-width="2"/>
<path d="M20 28C20 28.781 20 30 20 30M23 28V29M17 28V29" stroke="black" stroke-width="2" stroke-linecap="round"/>
</g>
<defs>
<clipPath id="clip0_2_105713">
<rect width="24" height="24" fill="white" transform="translate(8 8)"/>
</clipPath>
</defs>
</svg>
