<svg width="40" height="40" viewBox="0 0 40 40" fill="none" xmlns="http://www.w3.org/2000/svg">
<rect width="40" height="40" rx="12" fill="#F0F6FF"/>
<g clip-path="url(#clip0_2_105673)">
<path d="M12 18C12 16.1144 12 15.1716 12.5858 14.5858C13.1716 14 14.1144 14 16 14H18C19.8856 14 20.8284 14 21.4142 14.5858C22 15.1716 22 16.1144 22 18V21C22 22.8856 22 23.8284 21.4142 24.4142C20.8284 25 19.8856 25 18 25H16C14.1144 25 13.1716 25 12.5858 24.4142C12 23.8284 12 22.8856 12 21V18Z" stroke="black" stroke-width="2"/>
<path d="M22 17H24.9076C25.861 17 26.3377 17 26.7511 17.2006C27.1646 17.4013 27.4596 17.7757 28.0496 18.5245L29.3628 20.1913C29.5685 20.4524 29.6714 20.5829 29.7499 20.7249C29.8611 20.9258 29.9368 21.1443 29.9738 21.3709C30 21.531 30 21.6972 30 22.0296V22.0296C30 22.9337 30 23.3858 29.8565 23.7439C29.6532 24.2512 29.2512 24.6532 28.7439 24.8565C28.3858 25 27.9337 25 27.0296 25H26C24.1144 25 23.1716 25 22.5858 24.4142C22 23.8284 22 22.8856 22 21V17Z" stroke="black" stroke-width="2"/>
<path d="M29 25C29 26.6569 27.6569 28 26 28C24.3431 28 23 26.6569 23 25H19C19 26.6569 17.6569 28 16 28C14.3431 28 13 26.6569 13 25" stroke="black" stroke-width="2"/>
</g>
<defs>
<clipPath id="clip0_2_105673">
<rect width="23.3333" height="23.3333" fill="white" transform="translate(8.33331 8.33325)"/>
</clipPath>
</defs>
</svg>
